<svg data-v-0dd9719b="" version="1.0" xmlns="http://www.w3.org/2000/svg"
                                        xmlns:xlink="http://www.w3.org/1999/xlink" width="176px" height="35px"
                                        viewBox="0 0 340.000000 250.000000" preserveAspectRatio="xMidYMid meet"
                                        color-interpolation-filters="sRGB" style="margin: auto;">

                                        <rect data-v-0dd9719b="" x="0" y="0" width="100%" height="100%"
                                            fill="url(#watermark)" fill-opacity="1" class="watermarklayer"></rect>
                                        <g data-v-0dd9719b="" fill="#FFFFFF" class="iconlinesvg-g iconlinesvg"
                                            transform="translate(75.47999572753906,93.33032989501953)">
                                            <g class="tp-name" transform="translate(0,0)">
                                                <g transform="translate(0, 0)">
                                                    <g>
                                                        <g class="imagesvg">
                                                            <g>
                                                                <rect fill="#FFFFFF" fill-opacity="0" stroke-width="2"
                                                                    x="0" y="0" width="42.93852702792175"
                                                                    height="49.18333508346993" class="image-rect">
                                                                </rect> <svg filter="url(#colors3366105423)" x="0" y="0"
                                                                    width="42.93852702792175" height="49.18333508346993"
                                                                    filtersec="colorsf4718470745"
                                                                    class="image-svg-svg primary"
                                                                    style="overflow: visible;"><svg
                                                                        xmlns="http://www.w3.org/2000/svg"
                                                                        viewBox="-0.004525770433247089 -0.05058896541595459 84.87429809570312 97.21859741210938">
                                                                        <title>资源 107</title>
                                                                        <path
                                                                            d="M54.84 48.44v40.67a1.41 1.41 0 0 1-.84 1.45c-3.8 2.12-7.59 4.29-11.38 6.44a.92.92 0 0 1-1.06 0c-3.44-2-6.89-4-10.35-6a1.24 1.24 0 0 1-.69-1.26V50.38a2.77 2.77 0 0 0 0-.41c0-.17.11-.41-.1-.5s-.34.1-.49.2l-7.56 5.21c-2.13 1.47-4.26 3-6.42 4.41a1.33 1.33 0 0 0-.67 1.29v20.16c0 .24.13.57-.13.7s-.46-.15-.67-.28Q7.53 77 .57 73A1 1 0 0 1 0 72q.15-18 .27-36c0-3.85.08-7.69.1-11.53a1 1 0 0 1 .57-1q6.8-3.82 13.56-7.69c.8-.45.8-.45.8.52v22.16c0 .24-.15.56.12.69s.36-.21.55-.32c4.76-2.79 9.38-5.81 14.09-8.68a.91.91 0 0 0 .47-.89V7.5a1.17 1.17 0 0 1 .67-1.19c3.33-1.86 6.64-3.76 10-5.64a1.82 1.82 0 0 0 .31-.16c.94-.89 1.79-.59 2.8 0 3.25 2 6.56 3.89 9.87 5.8a1.31 1.31 0 0 1 .73 1.31q-.09 20.45-.07 40.82zm4.35.03v-38c0-.3-.18-.72.15-.89s.53.19.78.34c1.67 1 3.32 2 5 2.92a1.09 1.09 0 0 1 .61 1.1v69.25a1 1 0 0 1-.59 1c-1.76 1-3.49 2-5.23 3-.72.41-.73.41-.73-.48V48.47zm10.9.09v-32c0-.78 0-.79.68-.4 1.51.88 3 1.79 4.53 2.64a1 1 0 0 1 .55 1v57.51a1.17 1.17 0 0 1-.68 1.24c-1.49.77-2.93 1.64-4.39 2.46-.66.37-.69.35-.69-.43v-32zm10.07.13V22.6c0-.87 0-.88.78-.43 1.09.63 2.17 1.3 3.28 1.9a1.1 1.1 0 0 1 .64 1.15q-.1 10.94-.17 21.87-.07 10.15-.13 20.3v5.24a1 1 0 0 1-.59 1c-1.1.57-2.17 1.2-3.24 1.82-.39.22-.55.17-.53-.29V48.69z"
                                                                            fill="#333"></path>
                                                                    </svg></svg>
                                                                <defs>
                                                                    <filter id="colors3366105423">
                                                                        <feColorMatrix type="matrix"
                                                                            values="0 0 0 0 0.78515625  0 0 0 0 0.94921875  0 0 0 0 0.11328125  0 0 0 1 0"
                                                                            class="icon-fecolormatrix"></feColorMatrix>
                                                                    </filter>
                                                                    <filter id="colorsf4718470745">
                                                                        <feColorMatrix type="matrix"
                                                                            values="0 0 0 0 0.99609375  0 0 0 0 0.99609375  0 0 0 0 0.99609375  0 0 0 1 0"
                                                                            class="icon-fecolormatrix"></feColorMatrix>
                                                                    </filter>
                                                                    <filter id="colorsb9948223607">
                                                                        <feColorMatrix type="matrix"
                                                                            values="0 0 0 0 0  0 0 0 0 0  0 0 0 0 0  0 0 0 1 0"
                                                                            class="icon-fecolormatrix"></feColorMatrix>
                                                                    </filter>
                                                                </defs>
                                                            </g>
                                                        </g>
                                                    </g>
                                                </g>
                                                <g transform="translate(47, 4.098503479234964)">
                                                    <g data-gra="path-name" fill="#FFFFFF" transform="scale(1)">
                                                        <path
                                                            d="M17.55-40.99L17.55-7.85L7.85-7.85L7.85-40.99L0-40.99L0-6.01L6.01 0L19.39 0L25.40-6.01L25.40-40.99L17.55-40.99Z"
                                                            transform="translate(0, 40.986328125)"></path>
                                                    </g>
                                                </g>
                                                <g transform="translate(76, 4.098503479234964)">
                                                    <g data-gra="path-name" fill="#FFFFFF" transform="scale(1)">
                                                        <path
                                                            d="M19.39-40.99L6.01-40.99L0-34.95L0-22.56L5.86-16.58L17.58-16.58L17.58-7.85L7.85-7.85L7.85-13.97L0-13.97L0-6.01L6.01 0L19.39 0L25.40-6.01L25.40-18.34L23.26-20.42L23.29-20.45L19.25-24.40L7.85-24.40L7.85-33.13L17.58-33.13L17.58-27.01L25.40-27.01L25.40-34.95L19.39-40.99Z"
                                                            transform="translate(0, 40.986328125)"></path>
                                                    </g>
                                                </g>
                                                <g transform="translate(105, 4.098503479234964)">
                                                    <g data-gra="path-name" fill="#FFFFFF" transform="scale(1)">
                                                        <path
                                                            d="M20.83-40.99L0-40.99L0 0L20.83 0L20.83-7.85L7.85-7.85L7.85-16.58L18.22-16.58L18.22-24.40L7.85-24.40L7.85-33.13L20.83-33.13L20.83-40.99Z"
                                                            transform="translate(0, 40.986328125)"></path>
                                                    </g>
                                                </g>
                                                <g transform="translate(129, 4.098503479234964)">
                                                    <g data-gra="path-name" fill="#FFFFFF" transform="scale(1)">
                                                        <path
                                                            d="M21.24-40.99L14.30-24.17L7.76-40.99L0-40.99L10.28-14.62L10.28 0L18.11 0L18.11-14.62L29.00-40.99L21.24-40.99Z"
                                                            transform="translate(0, 40.986328125)"></path>
                                                    </g>
                                                </g>
                                                <g transform="translate(162, 4.098503479234964)">
                                                    <g data-gra="path-name" fill="#FFFFFF" transform="scale(1)">
                                                        <path
                                                            d="M19.19-40.99L19.19-17.64L8.82-40.99L0-40.99L0 0L7.85 0L7.85-23.35L18.22 0L27.04 0L27.04-40.99L19.19-40.99Z"
                                                            transform="translate(0, 40.986328125)"></path>
                                                    </g>
                                                </g>
                                            </g>
                                            <g data-gra="path-slogan" fill-rule="" class="tp-slogan" fill="#FFFFFF"
                                                transform="translate(5,55.18333435058594)">
                                                <rect x="0" height="1" y="3.580000877380371" width="62.89500427246094">
                                                </rect>
                                                <rect height="1" y="3.580000877380371" width="62.89500427246094"
                                                    x="116.14500427246094"></rect>
                                                <g transform="translate(65.89500427246094,0)">
                                                    <g transform="scale(1)">
                                                        <path
                                                            d="M4.43-3.20L2.06-3.20L2.44-4.40C2.58-4.84 2.72-5.28 2.84-5.72C2.97-6.15 3.10-6.60 3.22-7.06L3.26-7.06C3.39-6.60 3.52-6.15 3.65-5.72C3.78-5.28 3.91-4.84 4.06-4.40ZM4.68-2.40L5.42 0L6.49 0L3.83-7.87L2.70-7.87L0.04 0L1.06 0L1.81-2.40ZM7.63-1.72L7.03-1.02C7.38-0.66 7.78-0.38 8.26-0.17C8.73 0.04 9.24 0.14 9.79 0.14C10.21 0.14 10.58 0.09 10.91-0.03C11.24-0.15 11.52-0.31 11.75-0.51C11.98-0.71 12.16-0.95 12.28-1.22C12.41-1.50 12.47-1.79 12.47-2.10C12.47-2.39 12.43-2.64 12.34-2.86C12.26-3.08 12.14-3.27 12-3.44C11.86-3.60 11.68-3.75 11.48-3.87C11.28-3.99 11.07-4.10 10.85-4.20L9.73-4.68C9.57-4.74 9.42-4.81 9.26-4.89C9.11-4.97 8.97-5.05 8.84-5.15C8.72-5.25 8.61-5.37 8.54-5.50C8.46-5.63 8.42-5.80 8.42-5.99C8.42-6.35 8.56-6.63 8.83-6.83C9.09-7.04 9.45-7.14 9.89-7.14C10.26-7.14 10.59-7.07 10.88-6.94C11.17-6.81 11.44-6.63 11.68-6.40L12.22-7.04C11.94-7.33 11.60-7.57 11.20-7.75C10.80-7.93 10.36-8.02 9.89-8.02C9.53-8.02 9.20-7.96 8.90-7.86C8.60-7.76 8.34-7.61 8.12-7.42C7.90-7.23 7.73-7.01 7.60-6.76C7.48-6.50 7.42-6.22 7.42-5.93C7.42-5.64 7.46-5.39 7.56-5.17C7.66-4.95 7.78-4.76 7.93-4.60C8.08-4.44 8.26-4.30 8.45-4.19C8.64-4.08 8.83-3.98 9.01-3.90L10.14-3.41C10.32-3.32 10.50-3.24 10.66-3.16C10.82-3.08 10.95-2.99 11.07-2.89C11.19-2.79 11.28-2.67 11.35-2.53C11.41-2.39 11.45-2.22 11.45-2.02C11.45-1.63 11.30-1.32 11.02-1.09C10.73-0.85 10.32-0.73 9.80-0.73C9.40-0.73 9.00-0.82 8.62-1.00C8.24-1.18 7.91-1.42 7.63-1.72ZM14.02-7.87L14.02 0L15.01 0L15.01-2.50L16.37-4.09L18.72 0L19.84 0L16.99-4.87L19.45-7.87L18.32-7.87L15.05-3.92L15.01-3.92L15.01-7.87ZM24.19-3.20L21.83-3.20L22.20-4.40C22.34-4.84 22.48-5.28 22.61-5.72C22.74-6.15 22.86-6.60 22.98-7.06L23.03-7.06C23.16-6.60 23.28-6.15 23.41-5.72C23.54-5.28 23.68-4.84 23.82-4.40ZM24.44-2.40L25.19 0L26.26 0L23.59-7.87L22.46-7.87L19.80 0L20.82 0L21.58-2.40ZM28.37-4.14L28.37-7.07L29.69-7.07C30.30-7.07 30.78-6.96 31.10-6.76C31.43-6.55 31.60-6.18 31.60-5.66C31.60-5.15 31.43-4.77 31.10-4.52C30.78-4.27 30.30-4.14 29.69-4.14ZM31.69 0L32.82 0L30.83-3.43C31.36-3.57 31.79-3.82 32.11-4.19C32.43-4.56 32.59-5.05 32.59-5.66C32.59-6.07 32.52-6.42 32.39-6.70C32.25-6.98 32.06-7.20 31.82-7.38C31.57-7.56 31.28-7.68 30.94-7.76C30.60-7.83 30.23-7.87 29.83-7.87L27.37-7.87L27.37 0L28.37 0L28.37-3.32L29.80-3.32ZM37.25 0.14C37.74 0.14 38.20 0.05 38.61-0.14C39.02-0.34 39.38-0.61 39.68-0.97C39.98-1.32 40.21-1.75 40.37-2.26C40.54-2.77 40.62-3.34 40.62-3.97C40.62-4.60 40.54-5.16 40.37-5.66C40.21-6.16 39.98-6.58 39.68-6.93C39.38-7.28 39.02-7.55 38.61-7.73C38.20-7.92 37.74-8.02 37.25-8.02C36.75-8.02 36.30-7.92 35.89-7.74C35.47-7.56 35.12-7.29 34.82-6.94C34.53-6.59 34.30-6.17 34.13-5.67C33.97-5.17 33.89-4.60 33.89-3.97C33.89-3.34 33.97-2.77 34.13-2.26C34.30-1.75 34.53-1.32 34.82-0.97C35.12-0.61 35.47-0.34 35.89-0.14C36.30 0.05 36.75 0.14 37.25 0.14ZM37.25-0.73C36.90-0.73 36.58-0.81 36.29-0.96C36.01-1.11 35.77-1.33 35.56-1.61C35.36-1.90 35.20-2.24 35.09-2.63C34.98-3.03 34.92-3.48 34.92-3.97C34.92-4.46 34.98-4.90 35.09-5.29C35.20-5.68 35.36-6.02 35.56-6.29C35.77-6.56 36.01-6.77 36.29-6.92C36.58-7.07 36.90-7.14 37.25-7.14C37.60-7.14 37.92-7.07 38.20-6.92C38.49-6.77 38.73-6.56 38.93-6.29C39.14-6.02 39.30-5.68 39.41-5.29C39.52-4.90 39.58-4.46 39.58-3.97C39.58-3.48 39.52-3.03 39.41-2.63C39.30-2.24 39.14-1.90 38.93-1.61C38.73-1.33 38.49-1.11 38.20-0.96C37.92-0.81 37.60-0.73 37.25-0.73ZM41.11-7.87L43.63 0L44.80 0L47.29-7.87L46.27-7.87L45.01-3.62C44.88-3.15 44.75-2.72 44.64-2.32C44.53-1.92 44.40-1.48 44.26-1.02L44.21-1.02C44.06-1.48 43.93-1.92 43.82-2.32C43.71-2.72 43.58-3.15 43.44-3.62L42.18-7.87Z"
                                                            transform="translate(-0.036000000000000004, 8.016)"></path>
                                                    </g>
                                                </g>
                                            </g>
                                        </g>
                                        <defs v-gra="od"></defs>
                                    </svg>